G04 #@! TF.GenerationSoftware,KiCad,Pcbnew,(5.1.4)-1*
G04 #@! TF.CreationDate,2022-01-12T23:04:18-05:00*
G04 #@! TF.ProjectId,CA3080_to_LM13700,43413330-3830-45f7-946f-5f4c4d313337,rev?*
G04 #@! TF.SameCoordinates,Original*
G04 #@! TF.FileFunction,Soldermask,Top*
G04 #@! TF.FilePolarity,Negative*
%FSLAX46Y46*%
G04 Gerber Fmt 4.6, Leading zero omitted, Abs format (unit mm)*
G04 Created by KiCad (PCBNEW (5.1.4)-1) date 2022-01-12 23:04:18*
%MOMM*%
%LPD*%
G04 APERTURE LIST*
%ADD10C,0.100000*%
G04 APERTURE END LIST*
D10*
G36*
X135921000Y-59776000D02*
G01*
X135219000Y-59776000D01*
X135219000Y-58174000D01*
X135921000Y-58174000D01*
X135921000Y-59776000D01*
X135921000Y-59776000D01*
G37*
G36*
X133381000Y-59776000D02*
G01*
X132679000Y-59776000D01*
X132679000Y-58174000D01*
X133381000Y-58174000D01*
X133381000Y-59776000D01*
X133381000Y-59776000D01*
G37*
G36*
X132111000Y-59776000D02*
G01*
X131409000Y-59776000D01*
X131409000Y-58174000D01*
X132111000Y-58174000D01*
X132111000Y-59776000D01*
X132111000Y-59776000D01*
G37*
G36*
X130841000Y-59776000D02*
G01*
X130139000Y-59776000D01*
X130139000Y-58174000D01*
X130841000Y-58174000D01*
X130841000Y-59776000D01*
X130841000Y-59776000D01*
G37*
G36*
X129571000Y-59776000D02*
G01*
X128869000Y-59776000D01*
X128869000Y-58174000D01*
X129571000Y-58174000D01*
X129571000Y-59776000D01*
X129571000Y-59776000D01*
G37*
G36*
X128301000Y-59776000D02*
G01*
X127599000Y-59776000D01*
X127599000Y-58174000D01*
X128301000Y-58174000D01*
X128301000Y-59776000D01*
X128301000Y-59776000D01*
G37*
G36*
X127031000Y-59776000D02*
G01*
X126329000Y-59776000D01*
X126329000Y-58174000D01*
X127031000Y-58174000D01*
X127031000Y-59776000D01*
X127031000Y-59776000D01*
G37*
G36*
X134651000Y-59776000D02*
G01*
X133949000Y-59776000D01*
X133949000Y-58174000D01*
X134651000Y-58174000D01*
X134651000Y-59776000D01*
X134651000Y-59776000D01*
G37*
G36*
X128301000Y-54376000D02*
G01*
X127599000Y-54376000D01*
X127599000Y-52774000D01*
X128301000Y-52774000D01*
X128301000Y-54376000D01*
X128301000Y-54376000D01*
G37*
G36*
X135921000Y-54376000D02*
G01*
X135219000Y-54376000D01*
X135219000Y-52774000D01*
X135921000Y-52774000D01*
X135921000Y-54376000D01*
X135921000Y-54376000D01*
G37*
G36*
X127031000Y-54376000D02*
G01*
X126329000Y-54376000D01*
X126329000Y-52774000D01*
X127031000Y-52774000D01*
X127031000Y-54376000D01*
X127031000Y-54376000D01*
G37*
G36*
X129571000Y-54376000D02*
G01*
X128869000Y-54376000D01*
X128869000Y-52774000D01*
X129571000Y-52774000D01*
X129571000Y-54376000D01*
X129571000Y-54376000D01*
G37*
G36*
X130841000Y-54376000D02*
G01*
X130139000Y-54376000D01*
X130139000Y-52774000D01*
X130841000Y-52774000D01*
X130841000Y-54376000D01*
X130841000Y-54376000D01*
G37*
G36*
X132111000Y-54376000D02*
G01*
X131409000Y-54376000D01*
X131409000Y-52774000D01*
X132111000Y-52774000D01*
X132111000Y-54376000D01*
X132111000Y-54376000D01*
G37*
G36*
X133381000Y-54376000D02*
G01*
X132679000Y-54376000D01*
X132679000Y-52774000D01*
X133381000Y-52774000D01*
X133381000Y-54376000D01*
X133381000Y-54376000D01*
G37*
G36*
X134651000Y-54376000D02*
G01*
X133949000Y-54376000D01*
X133949000Y-52774000D01*
X134651000Y-52774000D01*
X134651000Y-54376000D01*
X134651000Y-54376000D01*
G37*
G36*
X135036824Y-49956314D02*
G01*
X135197243Y-50004977D01*
X135329907Y-50075887D01*
X135345079Y-50083997D01*
X135474660Y-50190342D01*
X135581005Y-50319923D01*
X135581006Y-50319925D01*
X135660025Y-50467759D01*
X135708688Y-50628178D01*
X135725118Y-50795001D01*
X135708688Y-50961824D01*
X135660025Y-51122243D01*
X135589115Y-51254907D01*
X135581005Y-51270079D01*
X135474660Y-51399660D01*
X135345079Y-51506005D01*
X135345077Y-51506006D01*
X135197243Y-51585025D01*
X135036824Y-51633688D01*
X134911805Y-51646001D01*
X134828197Y-51646001D01*
X134703178Y-51633688D01*
X134542759Y-51585025D01*
X134394925Y-51506006D01*
X134394923Y-51506005D01*
X134265342Y-51399660D01*
X134158997Y-51270079D01*
X134150887Y-51254907D01*
X134079977Y-51122243D01*
X134031314Y-50961824D01*
X134014884Y-50795001D01*
X134031314Y-50628178D01*
X134079977Y-50467759D01*
X134158996Y-50319925D01*
X134158997Y-50319923D01*
X134265342Y-50190342D01*
X134394923Y-50083997D01*
X134410095Y-50075887D01*
X134542759Y-50004977D01*
X134703178Y-49956314D01*
X134828197Y-49944001D01*
X134911805Y-49944001D01*
X135036824Y-49956314D01*
X135036824Y-49956314D01*
G37*
G36*
X127416824Y-49956314D02*
G01*
X127577243Y-50004977D01*
X127709907Y-50075887D01*
X127725079Y-50083997D01*
X127854660Y-50190342D01*
X127961005Y-50319923D01*
X127961006Y-50319925D01*
X128040025Y-50467759D01*
X128088688Y-50628178D01*
X128105118Y-50795001D01*
X128088688Y-50961824D01*
X128040025Y-51122243D01*
X127969115Y-51254907D01*
X127961005Y-51270079D01*
X127854660Y-51399660D01*
X127725079Y-51506005D01*
X127725077Y-51506006D01*
X127577243Y-51585025D01*
X127416824Y-51633688D01*
X127291805Y-51646001D01*
X127208197Y-51646001D01*
X127083178Y-51633688D01*
X126922759Y-51585025D01*
X126774925Y-51506006D01*
X126774923Y-51506005D01*
X126645342Y-51399660D01*
X126538997Y-51270079D01*
X126530887Y-51254907D01*
X126459977Y-51122243D01*
X126411314Y-50961824D01*
X126394884Y-50795001D01*
X126411314Y-50628178D01*
X126459977Y-50467759D01*
X126538996Y-50319925D01*
X126538997Y-50319923D01*
X126645342Y-50190342D01*
X126774923Y-50083997D01*
X126790095Y-50075887D01*
X126922759Y-50004977D01*
X127083178Y-49956314D01*
X127208197Y-49944001D01*
X127291805Y-49944001D01*
X127416824Y-49956314D01*
X127416824Y-49956314D01*
G37*
G36*
X135036824Y-47416314D02*
G01*
X135197243Y-47464977D01*
X135329907Y-47535887D01*
X135345079Y-47543997D01*
X135474660Y-47650342D01*
X135581005Y-47779923D01*
X135581006Y-47779925D01*
X135660025Y-47927759D01*
X135708688Y-48088178D01*
X135725118Y-48255001D01*
X135708688Y-48421824D01*
X135660025Y-48582243D01*
X135589115Y-48714907D01*
X135581005Y-48730079D01*
X135474660Y-48859660D01*
X135345079Y-48966005D01*
X135345077Y-48966006D01*
X135197243Y-49045025D01*
X135036824Y-49093688D01*
X134911805Y-49106001D01*
X134828197Y-49106001D01*
X134703178Y-49093688D01*
X134542759Y-49045025D01*
X134394925Y-48966006D01*
X134394923Y-48966005D01*
X134265342Y-48859660D01*
X134158997Y-48730079D01*
X134150887Y-48714907D01*
X134079977Y-48582243D01*
X134031314Y-48421824D01*
X134014884Y-48255001D01*
X134031314Y-48088178D01*
X134079977Y-47927759D01*
X134158996Y-47779925D01*
X134158997Y-47779923D01*
X134265342Y-47650342D01*
X134394923Y-47543997D01*
X134410095Y-47535887D01*
X134542759Y-47464977D01*
X134703178Y-47416314D01*
X134828197Y-47404001D01*
X134911805Y-47404001D01*
X135036824Y-47416314D01*
X135036824Y-47416314D01*
G37*
G36*
X127416824Y-47416314D02*
G01*
X127577243Y-47464977D01*
X127709907Y-47535887D01*
X127725079Y-47543997D01*
X127854660Y-47650342D01*
X127961005Y-47779923D01*
X127961006Y-47779925D01*
X128040025Y-47927759D01*
X128088688Y-48088178D01*
X128105118Y-48255001D01*
X128088688Y-48421824D01*
X128040025Y-48582243D01*
X127969115Y-48714907D01*
X127961005Y-48730079D01*
X127854660Y-48859660D01*
X127725079Y-48966005D01*
X127725077Y-48966006D01*
X127577243Y-49045025D01*
X127416824Y-49093688D01*
X127291805Y-49106001D01*
X127208197Y-49106001D01*
X127083178Y-49093688D01*
X126922759Y-49045025D01*
X126774925Y-48966006D01*
X126774923Y-48966005D01*
X126645342Y-48859660D01*
X126538997Y-48730079D01*
X126530887Y-48714907D01*
X126459977Y-48582243D01*
X126411314Y-48421824D01*
X126394884Y-48255001D01*
X126411314Y-48088178D01*
X126459977Y-47927759D01*
X126538996Y-47779925D01*
X126538997Y-47779923D01*
X126645342Y-47650342D01*
X126774923Y-47543997D01*
X126790095Y-47535887D01*
X126922759Y-47464977D01*
X127083178Y-47416314D01*
X127208197Y-47404001D01*
X127291805Y-47404001D01*
X127416824Y-47416314D01*
X127416824Y-47416314D01*
G37*
G36*
X127416824Y-44876314D02*
G01*
X127577243Y-44924977D01*
X127709907Y-44995887D01*
X127725079Y-45003997D01*
X127854660Y-45110342D01*
X127961005Y-45239923D01*
X127961006Y-45239925D01*
X128040025Y-45387759D01*
X128088688Y-45548178D01*
X128105118Y-45715001D01*
X128088688Y-45881824D01*
X128040025Y-46042243D01*
X127969115Y-46174907D01*
X127961005Y-46190079D01*
X127854660Y-46319660D01*
X127725079Y-46426005D01*
X127725077Y-46426006D01*
X127577243Y-46505025D01*
X127416824Y-46553688D01*
X127291805Y-46566001D01*
X127208197Y-46566001D01*
X127083178Y-46553688D01*
X126922759Y-46505025D01*
X126774925Y-46426006D01*
X126774923Y-46426005D01*
X126645342Y-46319660D01*
X126538997Y-46190079D01*
X126530887Y-46174907D01*
X126459977Y-46042243D01*
X126411314Y-45881824D01*
X126394884Y-45715001D01*
X126411314Y-45548178D01*
X126459977Y-45387759D01*
X126538996Y-45239925D01*
X126538997Y-45239923D01*
X126645342Y-45110342D01*
X126774923Y-45003997D01*
X126790095Y-44995887D01*
X126922759Y-44924977D01*
X127083178Y-44876314D01*
X127208197Y-44864001D01*
X127291805Y-44864001D01*
X127416824Y-44876314D01*
X127416824Y-44876314D01*
G37*
G36*
X135036824Y-44876314D02*
G01*
X135197243Y-44924977D01*
X135329907Y-44995887D01*
X135345079Y-45003997D01*
X135474660Y-45110342D01*
X135581005Y-45239923D01*
X135581006Y-45239925D01*
X135660025Y-45387759D01*
X135708688Y-45548178D01*
X135725118Y-45715001D01*
X135708688Y-45881824D01*
X135660025Y-46042243D01*
X135589115Y-46174907D01*
X135581005Y-46190079D01*
X135474660Y-46319660D01*
X135345079Y-46426005D01*
X135345077Y-46426006D01*
X135197243Y-46505025D01*
X135036824Y-46553688D01*
X134911805Y-46566001D01*
X134828197Y-46566001D01*
X134703178Y-46553688D01*
X134542759Y-46505025D01*
X134394925Y-46426006D01*
X134394923Y-46426005D01*
X134265342Y-46319660D01*
X134158997Y-46190079D01*
X134150887Y-46174907D01*
X134079977Y-46042243D01*
X134031314Y-45881824D01*
X134014884Y-45715001D01*
X134031314Y-45548178D01*
X134079977Y-45387759D01*
X134158996Y-45239925D01*
X134158997Y-45239923D01*
X134265342Y-45110342D01*
X134394923Y-45003997D01*
X134410095Y-44995887D01*
X134542759Y-44924977D01*
X134703178Y-44876314D01*
X134828197Y-44864001D01*
X134911805Y-44864001D01*
X135036824Y-44876314D01*
X135036824Y-44876314D01*
G37*
G36*
X132901000Y-44276000D02*
G01*
X131599000Y-44276000D01*
X131599000Y-43274000D01*
X132901000Y-43274000D01*
X132901000Y-44276000D01*
X132901000Y-44276000D01*
G37*
G36*
X130701000Y-44276000D02*
G01*
X129399000Y-44276000D01*
X129399000Y-43274000D01*
X130701000Y-43274000D01*
X130701000Y-44276000D01*
X130701000Y-44276000D01*
G37*
G36*
X135036824Y-42336314D02*
G01*
X135197243Y-42384977D01*
X135329907Y-42455887D01*
X135345079Y-42463997D01*
X135474660Y-42570342D01*
X135581005Y-42699923D01*
X135581006Y-42699925D01*
X135660025Y-42847759D01*
X135708688Y-43008178D01*
X135725118Y-43175001D01*
X135708688Y-43341824D01*
X135660025Y-43502243D01*
X135589115Y-43634907D01*
X135581005Y-43650079D01*
X135474660Y-43779660D01*
X135345079Y-43886005D01*
X135345077Y-43886006D01*
X135197243Y-43965025D01*
X135036824Y-44013688D01*
X134911805Y-44026001D01*
X134828197Y-44026001D01*
X134703178Y-44013688D01*
X134542759Y-43965025D01*
X134394925Y-43886006D01*
X134394923Y-43886005D01*
X134265342Y-43779660D01*
X134158997Y-43650079D01*
X134150887Y-43634907D01*
X134079977Y-43502243D01*
X134031314Y-43341824D01*
X134014884Y-43175001D01*
X134031314Y-43008178D01*
X134079977Y-42847759D01*
X134158996Y-42699925D01*
X134158997Y-42699923D01*
X134265342Y-42570342D01*
X134394923Y-42463997D01*
X134410095Y-42455887D01*
X134542759Y-42384977D01*
X134703178Y-42336314D01*
X134828197Y-42324001D01*
X134911805Y-42324001D01*
X135036824Y-42336314D01*
X135036824Y-42336314D01*
G37*
G36*
X128101001Y-44026001D02*
G01*
X126399001Y-44026001D01*
X126399001Y-42324001D01*
X128101001Y-42324001D01*
X128101001Y-44026001D01*
X128101001Y-44026001D01*
G37*
M02*
