G04 #@! TF.GenerationSoftware,KiCad,Pcbnew,(5.1.4)-1*
G04 #@! TF.CreationDate,2022-01-12T23:04:17-05:00*
G04 #@! TF.ProjectId,CA3080_to_LM13700,43413330-3830-45f7-946f-5f4c4d313337,rev?*
G04 #@! TF.SameCoordinates,Original*
G04 #@! TF.FileFunction,Copper,L1,Top*
G04 #@! TF.FilePolarity,Positive*
%FSLAX46Y46*%
G04 Gerber Fmt 4.6, Leading zero omitted, Abs format (unit mm)*
G04 Created by KiCad (PCBNEW (5.1.4)-1) date 2022-01-12 23:04:17*
%MOMM*%
%LPD*%
G04 APERTURE LIST*
%ADD10O,1.600000X1.600000*%
%ADD11R,1.600000X1.600000*%
%ADD12R,1.200000X0.900000*%
%ADD13R,0.600000X1.500000*%
%ADD14C,0.800000*%
%ADD15C,0.250000*%
G04 APERTURE END LIST*
D10*
X134870001Y-43175001D03*
X127250001Y-50795001D03*
X134870001Y-45715001D03*
X127250001Y-48255001D03*
X134870001Y-48255001D03*
X127250001Y-45715001D03*
X134870001Y-50795001D03*
D11*
X127250001Y-43175001D03*
D12*
X130050000Y-43775000D03*
X132250000Y-43775000D03*
D13*
X135570000Y-58975000D03*
X134300000Y-58975000D03*
X133030000Y-58975000D03*
X131760000Y-58975000D03*
X130490000Y-58975000D03*
X129220000Y-58975000D03*
X127950000Y-58975000D03*
X126680000Y-58975000D03*
X126680000Y-53575000D03*
X127950000Y-53575000D03*
X129220000Y-53575000D03*
X130490000Y-53575000D03*
X131760000Y-53575000D03*
X133030000Y-53575000D03*
X134300000Y-53575000D03*
X135570000Y-53575000D03*
D14*
X133225000Y-55550000D03*
X132150000Y-51075000D03*
X131375153Y-49275153D03*
X132475000Y-48980001D03*
X130000000Y-42450000D03*
D15*
X129220000Y-51633630D02*
X129220000Y-53575000D01*
X127250001Y-50795001D02*
X128381371Y-50795001D01*
X128381371Y-50795001D02*
X129220000Y-51633630D01*
X132195000Y-55550000D02*
X133225000Y-55550000D01*
X129220000Y-58975000D02*
X129220000Y-58525000D01*
X129220000Y-58525000D02*
X132195000Y-55550000D01*
X132930000Y-43775000D02*
X132250000Y-43775000D01*
X134870001Y-45715001D02*
X132930000Y-43775000D01*
X133030000Y-53575000D02*
X133030000Y-51955000D01*
X133030000Y-51955000D02*
X132150000Y-51075000D01*
X130490000Y-53575000D02*
X130490000Y-49135000D01*
X131369999Y-48255001D02*
X134870001Y-48255001D01*
X130490000Y-49135000D02*
X131369999Y-48255001D01*
X131760000Y-52575000D02*
X131175000Y-51990000D01*
X131760000Y-53575000D02*
X131760000Y-52575000D01*
X131175000Y-51990000D02*
X131175000Y-49475306D01*
X131175000Y-49475306D02*
X131375153Y-49275153D01*
X135570000Y-51495000D02*
X134870001Y-50795001D01*
X135570000Y-53575000D02*
X135570000Y-51495000D01*
X134300000Y-52575000D02*
X133025000Y-51300000D01*
X134300000Y-53575000D02*
X134300000Y-52575000D01*
X133025000Y-51300000D02*
X133025000Y-49530001D01*
X133025000Y-49530001D02*
X132475000Y-48980001D01*
X130000000Y-43725000D02*
X130050000Y-43775000D01*
X130000000Y-42450000D02*
X130000000Y-43725000D01*
M02*
